<?xml version="1.0" standalone="no"?>
<!DOCTYPE svg PUBLIC "-//W3C//DTD SVG 20010904//EN"
 "http://www.w3.org/TR/2001/REC-SVG-20010904/DTD/svg10.dtd">
<svg version="1.0" xmlns="http://www.w3.org/2000/svg"
 width="512.000000pt" height="512.000000pt" viewBox="0 0 512.000000 512.000000"
 preserveAspectRatio="xMidYMid meet">
<metadata>
Created by potrace 1.14, written by Peter Selinger 2001-2017
</metadata>
<g transform="translate(0.000000,512.000000) scale(0.100000,-0.100000)"
fill="#000000" stroke="none">
<path d="M190 5111 c-76 -24 -137 -79 -169 -154 -21 -48 -21 -59 -19 -895 3
-847 3 -847 25 -887 49 -91 131 -141 240 -144 37 -1 69 -3 70 -5 2 -1 3 -118
3 -259 1 -141 3 -257 5 -257 2 0 37 17 77 39 40 21 141 73 223 116 212 110
364 189 482 251 56 30 128 67 161 84 l60 30 408 -2 409 -3 1 -211 1 -211 -601
0 -601 0 -57 -27 c-63 -30 -107 -77 -134 -145 -16 -40 -17 -111 -18 -840 -1
-438 3 -818 7 -845 11 -66 38 -116 83 -156 75 -65 64 -64 549 -66 242 -2 443
-3 446 -3 4 -1 35 -40 70 -89 35 -48 69 -94 76 -102 7 -8 62 -84 123 -167 61
-84 115 -153 119 -153 4 0 92 113 195 250 l188 250 427 1 c234 0 439 3 455 5
84 14 163 77 195 157 21 52 21 56 19 895 l-3 842 43 0 c31 0 65 -12 125 -44
45 -24 150 -78 232 -121 83 -43 191 -99 240 -125 50 -26 162 -84 250 -130 88
-45 164 -87 170 -91 5 -5 13 -9 17 -9 4 0 8 117 8 260 l0 260 48 0 c112 0 211
58 255 148 l22 47 0 850 c0 810 -1 852 -19 885 -40 75 -123 139 -191 146 -16
1 -462 3 -990 3 l-961 1 1 188 c0 103 -3 209 -8 236 -14 83 -67 149 -147 185
-44 20 -59 20 -1315 20 -698 0 -1281 -4 -1295 -8z"/>
</g>
</svg>
